<mxfile host="app.diagrams.net" modified="2022-06-30T03:59:38.182Z" agent="5.0 (Macintosh; Intel Mac OS X 10_15_7) AppleWebKit/537.36 (KHTML, like Gecko) Chrome/103.0.0.0 Safari/537.36" etag="h-0cCnCzBjamdyL-Dn1l" version="20.0.4" type="github">
  <diagram id="61U7Sug4yAXVSB_4G8tc" name="第 1 页">
    <mxGraphModel dx="1018" dy="658" grid="1" gridSize="10" guides="1" tooltips="1" connect="1" arrows="1" fold="1" page="1" pageScale="1" pageWidth="827" pageHeight="1169" math="0" shadow="0">
      <root>
        <mxCell id="0" />
        <mxCell id="1" parent="0" />
        <mxCell id="jdDl_UNpEvxeOC1EdFfX-1" value="" style="strokeWidth=2;html=1;shape=mxgraph.flowchart.direct_data;whiteSpace=wrap;" vertex="1" parent="1">
          <mxGeometry x="300" y="600" width="100" height="60" as="geometry" />
        </mxCell>
        <mxCell id="jdDl_UNpEvxeOC1EdFfX-2" value="" style="strokeWidth=2;html=1;shape=mxgraph.flowchart.direct_data;whiteSpace=wrap;" vertex="1" parent="1">
          <mxGeometry x="320" y="820" width="100" height="60" as="geometry" />
        </mxCell>
      </root>
    </mxGraphModel>
  </diagram>
</mxfile>
